<?xml version="1.0" standalone="no"?>
<!DOCTYPE svg PUBLIC "-//W3C//DTD SVG 20010904//EN"
 "http://www.w3.org/TR/2001/REC-SVG-20010904/DTD/svg10.dtd">
<svg version="1.0" xmlns="http://www.w3.org/2000/svg"
 width="222.000000pt" height="222.000000pt" viewBox="0 0 222.000000 222.000000"
 preserveAspectRatio="xMidYMid meet">
<metadata>
Created by potrace 1.11, written by Peter Selinger 2001-2013
</metadata>
<g transform="translate(0.000000,222.000000) scale(0.100000,-0.100000)"
fill="#000000" stroke="none">
<path d="M16 1892 c-13 -3 -16 -10 -12 -30 3 -15 10 -63 17 -107 6 -44 13 -88
15 -98 2 -10 8 -51 14 -90 16 -117 29 -201 34 -223 2 -12 7 -45 11 -75 3 -30
8 -61 10 -69 2 -8 7 -35 10 -60 3 -25 8 -52 10 -60 2 -8 6 -35 9 -60 3 -25 8
-56 11 -69 2 -12 7 -42 9 -65 3 -22 8 -52 11 -66 3 -14 7 -43 10 -65 3 -22 7
-51 10 -65 7 -37 13 -79 20 -135 4 -27 8 -57 10 -65 2 -8 7 -35 10 -60 3 -25
8 -57 11 -73 l6 -28 149 3 150 3 60 130 c33 72 66 144 74 160 7 17 32 71 55
120 23 50 51 110 62 135 11 25 35 77 53 115 17 39 39 86 48 105 8 19 34 76 57
125 23 50 51 110 61 134 11 24 22 42 24 39 4 -4 12 -41 29 -138 2 -14 13 -77
25 -140 11 -63 23 -133 27 -155 3 -22 14 -85 24 -140 11 -55 26 -140 35 -190
8 -49 17 -101 20 -115 3 -14 7 -34 9 -45 2 -11 7 -40 11 -65 13 -87 -1 -80
169 -80 l152 0 26 57 c26 56 231 529 288 663 15 36 37 85 48 110 11 25 42 94
67 155 26 60 55 127 65 150 69 153 180 418 176 422 -4 4 -175 6 -297 4 l-47
-1 -45 -112 c-24 -62 -116 -293 -203 -513 l-158 -400 -12 60 c-11 53 -16 81
-29 170 -2 11 -6 36 -10 55 -3 19 -13 73 -21 120 -8 47 -17 99 -20 115 -11 59
-75 431 -80 465 -3 19 -7 37 -9 39 -3 3 -211 4 -296 2 -20 -1 -31 -9 -42 -33
-21 -44 -103 -219 -137 -293 -15 -33 -46 -98 -68 -145 -46 -100 -98 -209 -148
-317 -20 -43 -49 -107 -65 -142 -16 -35 -31 -62 -33 -60 -2 2 -7 38 -11 79 -3
41 -8 82 -10 90 -2 8 -7 49 -10 90 -3 41 -8 86 -10 100 -2 14 -7 50 -10 80
-13 126 -16 157 -20 190 -3 19 -7 67 -11 105 -3 39 -8 77 -9 85 -2 8 -6 50
-10 93 -4 42 -10 77 -14 78 -27 2 -341 3 -355 1z"/>
</g>
</svg>
